<?xml version="1.0" standalone="no"?>
<!DOCTYPE svg PUBLIC "-//W3C//DTD SVG 20010904//EN"
 "http://www.w3.org/TR/2001/REC-SVG-20010904/DTD/svg10.dtd">
<svg version="1.0" xmlns="http://www.w3.org/2000/svg"
 width="800.000000pt" height="1183.000000pt" viewBox="0 0 800.000000 1183.000000"
 preserveAspectRatio="xMidYMid meet">

<g transform="translate(0.000000,1183.000000) scale(0.100000,-0.100000)"
fill="#000000" stroke="none">
<path d="M7061 11702 c-102 -107 -489 -557 -712 -827 -500 -606 -1099 -1411
-1516 -2035 -849 -1273 -1500 -2451 -2003 -3624 -203 -474 -407 -1072 -511
-1493 -56 -229 -157 -739 -169 -853 -27 -257 3 -529 77 -693 48 -106 131 -207
217 -265 167 -112 273 -146 451 -145 354 0 790 176 1341 538 498 328 982 744
1695 1455 410 409 574 590 300 330 -700 -662 -1181 -1049 -1681 -1350 -246
-149 -608 -312 -827 -375 -88 -26 -98 -26 -320 -23 l-228 3 -75 40 c-103 55
-171 127 -225 239 -136 282 -139 674 -9 1406 77 436 203 905 359 1335 207 569
407 1038 675 1580 183 371 609 1129 873 1555 292 471 436 693 575 892 63 90
210 300 325 468 280 406 449 641 587 821 262 341 441 565 738 923 108 131 138
177 63 98z"/>
<path d="M897 8303 l-837 -3 0 -75 0 -75 520 0 520 0 2 -3197 3 -3198 351 -3
351 -2 7 137 c4 76 6 1552 5 3281 l-2 3142 -41 -2 c-22 -2 -418 -4 -879 -5z"/>
<path d="M4195 1436 c-141 -35 -215 -118 -215 -238 1 -95 57 -176 150 -217 87
-38 272 -36 350 4 22 11 28 11 49 -6 15 -12 39 -19 67 -19 l44 0 0 130 0 130
-145 0 -145 0 0 -40 0 -39 77 -3 77 -3 -33 -37 c-45 -52 -117 -75 -185 -59
-98 23 -143 84 -134 183 6 57 40 100 103 129 72 34 144 20 206 -38 24 -22 33
-24 107 -21 l81 3 -16 33 c-21 44 -88 88 -159 107 -69 18 -209 18 -279 1z"/>
<path d="M5940 1434 c-80 -21 -141 -62 -170 -114 -21 -37 -25 -58 -25 -120 1
-91 26 -147 84 -186 119 -78 367 -82 491 -7 32 20 53 43 73 83 25 48 28 63 24
122 -8 121 -68 188 -202 222 -73 20 -202 19 -275 0z m235 -98 c54 -28 88 -96
79 -154 -12 -79 -58 -124 -144 -143 -82 -19 -191 46 -205 122 -16 86 44 179
128 197 52 11 91 5 142 -22z"/>
<path d="M7454 1436 c-147 -37 -227 -140 -209 -270 8 -65 26 -96 76 -140 62
-53 125 -71 249 -71 88 0 112 4 149 22 44 22 44 22 69 3 17 -14 40 -20 73 -20
l49 0 0 38 c0 22 -3 80 -6 130 l-7 92 -143 0 -144 0 0 -39 c0 -45 11 -51 99
-51 l55 0 -34 -35 c-40 -42 -117 -68 -170 -59 -111 20 -182 122 -145 210 22
53 60 90 112 110 62 24 118 15 182 -30 47 -32 60 -36 115 -36 33 0 67 4 75 9
26 17 -33 79 -108 115 -60 28 -76 31 -176 33 -65 1 -131 -3 -161 -11z"/>
<path d="M1158 1433 c-61 -4 -65 -9 -52 -60 6 -22 11 -23 110 -23 l104 0 0
-195 0 -195 80 0 80 0 0 195 0 195 105 0 105 0 0 38 0 39 -112 6 c-112 7 -311
6 -420 0z"/>
<path d="M1800 1200 l0 -240 80 0 80 0 0 94 c0 52 3 101 6 110 5 13 26 16 124
16 l117 0 7 -61 c3 -34 6 -84 6 -110 l0 -49 80 0 80 0 0 234 0 233 -46 7 c-26
3 -62 6 -80 6 l-33 0 -3 -87 -3 -88 -122 -3 -121 -3 -8 91 -7 90 -78 0 -79 0
0 -240z"/>
<path d="M2694 1373 c-185 -348 -210 -399 -200 -405 6 -4 39 -8 74 -8 66 0 65
0 118 68 25 31 27 32 109 32 125 0 138 -5 163 -56 l22 -44 85 0 c47 0 85 3 85
6 0 13 -234 459 -244 466 -6 4 -48 8 -93 8 l-83 0 -36 -67z m160 -163 l37 -70
-75 0 c-42 0 -76 2 -76 5 0 10 65 135 70 135 3 0 23 -31 44 -70z"/>
<path d="M3254 1409 c3 -17 6 -125 6 -240 l0 -209 70 0 70 0 1 113 c0 61 4
131 7 155 l7 43 129 -156 128 -155 82 0 81 0 0 240 0 240 -77 0 -78 0 0 -147
0 -146 -21 19 c-11 10 -65 73 -120 140 -110 134 -110 134 -226 134 l-65 0 6
-31z"/>
<path d="M5120 1200 l0 -240 249 0 249 0 7 36 c3 20 3 39 0 43 -4 3 -68 7
-143 8 -76 0 -152 1 -169 2 l-33 1 0 189 0 188 -37 7 c-21 3 -57 6 -80 6 l-43
0 0 -240z"/>
<path d="M6520 1201 l0 -241 69 0 68 0 7 61 c3 34 6 103 6 152 l0 90 26 -24
c15 -13 61 -67 104 -119 136 -167 126 -160 214 -160 l76 0 0 224 c0 123 3 231
6 240 5 14 -5 16 -70 16 l-76 0 0 -152 0 -151 -26 24 c-15 13 -63 68 -108 122
-44 55 -91 111 -103 125 -21 25 -30 27 -108 31 l-85 3 0 -241z"/>
<path d="M1183 612 l-53 -3 0 -215 c0 -169 3 -221 15 -243 28 -56 150 -79 236
-44 64 25 69 46 69 293 l0 210 -44 0 c-24 0 -51 3 -60 6 -14 5 -16 -16 -16
-197 0 -112 -4 -210 -9 -217 -9 -15 -57 -7 -69 12 -4 6 -9 99 -12 206 l-5 195
-52 -3z"/>
<path d="M1924 613 c-21 -4 -22 -6 -20 -259 l1 -254 59 0 58 0 -7 125 c-4 69
-4 125 -1 125 7 0 66 -117 95 -192 l23 -58 59 0 59 0 0 255 0 255 -62 0 -63 0
3 -122 c2 -68 1 -121 -2 -118 -3 3 -26 55 -51 115 -25 61 -53 116 -62 123 -16
12 -46 14 -89 5z"/>
<path d="M2703 613 c-10 -3 -13 -65 -13 -259 l0 -254 55 0 55 0 0 254 0 254
-22 6 c-27 7 -58 7 -75 -1z"/>
<path d="M3256 612 c-3 -5 21 -94 53 -198 32 -104 67 -217 76 -252 l18 -63 55
3 55 3 68 235 c37 129 70 245 74 258 5 21 3 22 -59 22 l-65 0 -10 -37 c-6 -21
-20 -81 -32 -133 -12 -52 -24 -101 -28 -108 -4 -7 -22 50 -41 127 l-34 139
-35 6 c-51 8 -89 7 -95 -2z"/>
<path d="M4100 443 c0 -98 3 -215 7 -260 l6 -83 108 0 109 0 0 54 c0 58 -8 66
-73 66 -26 0 -28 2 -25 38 3 36 4 37 44 40 39 3 42 5 48 40 13 78 11 82 -39
82 l-45 0 0 45 0 45 45 0 45 0 0 55 0 55 -115 0 -115 0 0 -177z"/>
<path d="M4803 614 l-23 -5 0 -255 0 -254 65 0 64 0 3 88 3 87 36 -85 36 -85
68 -3 c52 -2 66 0 62 10 -2 7 -23 57 -46 110 l-42 97 37 48 c33 44 36 52 32
101 -9 100 -64 143 -191 147 -45 2 -92 1 -104 -1z m137 -109 c46 -24 49 -54 9
-87 -18 -15 -37 -28 -41 -28 -4 0 -8 29 -8 65 0 36 2 65 5 65 4 0 19 -7 35
-15z"/>
<path d="M5636 610 c-58 -18 -96 -76 -96 -146 0 -61 24 -96 95 -137 67 -39 89
-73 65 -101 -19 -24 -65 -29 -99 -12 -16 9 -32 16 -36 16 -3 0 -5 -27 -5 -59
0 -57 1 -59 31 -70 85 -30 169 -2 206 69 47 88 23 159 -77 230 -68 48 -83 76
-55 104 15 14 20 14 67 -4 29 -11 53 -18 55 -16 2 2 1 29 -3 60 -7 61 -5 59
-84 70 -19 2 -48 0 -64 -4z"/>
<path d="M7571 611 c-11 -7 -1 -33 50 -127 l63 -119 4 -132 4 -133 58 0 57 0
7 46 c3 26 6 87 6 135 l0 89 60 114 c33 63 60 120 60 125 0 7 -26 11 -65 11
-72 0 -73 -1 -104 -94 l-18 -51 -22 60 c-12 33 -27 65 -33 72 -12 15 -106 17
-127 4z"/>
<path d="M6250 350 l0 -260 60 0 60 0 0 260 0 260 -60 0 -60 0 0 -260z"/>
<path d="M6830 556 l0 -55 41 -3 41 -3 -2 -197 -1 -198 63 0 63 0 -4 200 -3
200 47 0 c39 0 46 3 41 16 -3 9 -6 33 -6 55 l0 39 -140 0 -140 0 0 -54z"/>
</g>
</svg>
