<?xml version="1.0" encoding="UTF-8"?>
<svg version="1.1" xmlns="http://www.w3.org/2000/svg" width="318" height="370">
<path d="M0 0 C0.88945312 0.11085938 1.77890625 0.22171875 2.6953125 0.3359375 C-0.3327753 6.87660715 -4.11467733 12.48814069 -8.3046875 18.3359375 C-11.79687931 23.37079657 -14.98190732 28.46072431 -17.90625 33.84375 C-20.19541636 37.92332581 -22.69155266 41.87397094 -25.15234375 45.8515625 C-35.6737739 62.86493891 -46.22002769 80.05952384 -54.49951172 98.29150391 C-56.64498772 103.00527057 -59.00493265 107.54474167 -61.4921875 112.0859375 C-71.57117488 130.69964115 -79.76101342 150.58030672 -87.3046875 170.3359375 C-87.67577637 171.30402344 -88.04686523 172.27210938 -88.42919922 173.26953125 C-92.99022833 185.20155956 -97.48654648 197.14208571 -101.3046875 209.3359375 C-101.50513672 209.97450684 -101.70558594 210.61307617 -101.91210938 211.27099609 C-107.53239656 229.32682526 -111.75617267 247.59601726 -114.3046875 266.3359375 C-114.43746094 267.25117188 -114.57023437 268.16640625 -114.70703125 269.109375 C-117.00909476 287.58895334 -116.08549149 306.19761092 -106.3046875 322.3359375 C-106.3046875 322.9959375 -106.3046875 323.6559375 -106.3046875 324.3359375 C-105.53125 324.7071875 -105.53125 324.7071875 -104.7421875 325.0859375 C-102.69751288 326.13448858 -100.72641148 327.2423748 -98.7421875 328.3984375 C-91.08398448 332.7148792 -81.58281329 332.53375276 -73.1796875 330.2109375 C-56.40698992 324.28312744 -42.9194754 313.55144428 -30.3046875 301.3359375 C-29.79663574 300.85366699 -29.28858398 300.37139648 -28.76513672 299.87451172 C-22.10126181 293.54477031 -16.32228944 287.07536884 -11.046875 279.5390625 C-10.47195313 278.81203125 -9.89703125 278.085 -9.3046875 277.3359375 C-8.6446875 277.3359375 -7.9846875 277.3359375 -7.3046875 277.3359375 C-7.07910156 276.65273438 -6.85351562 275.96953125 -6.62109375 275.265625 C-4.97588292 271.60417657 -2.67078989 268.62353772 -0.2421875 265.4609375 C8.79413515 253.36723465 15.81584013 240.47754695 22.62280273 227.015625 C23.10821533 226.06429687 23.59362793 225.11296875 24.09375 224.1328125 C24.52349121 223.28041992 24.95323242 222.42802734 25.39599609 221.54980469 C26.63464282 219.43931079 27.88275555 217.96254027 29.6953125 216.3359375 C30.81811523 217.96386719 30.81811523 217.96386719 31.6953125 220.3359375 C31.02368164 223.10644531 31.02368164 223.10644531 29.73046875 226.2890625 C29.26358643 227.45800049 28.7967041 228.62693848 28.31567383 229.83129883 C27.79703809 231.08311512 27.27773784 232.33465628 26.7578125 233.5859375 C26.23816068 234.86506633 25.71952754 236.14460947 25.2019043 237.42456055 C23.72102694 241.07072946 22.21053909 244.70391204 20.6953125 248.3359375 C20.33630859 249.20621582 19.97730469 250.07649414 19.60742188 250.97314453 C16.08948077 259.47360117 12.0705061 267.62356971 7.65625 275.69140625 C5.76354715 279.16567007 4.0395298 282.70989553 2.3203125 286.2734375 C-6.39386659 303.8005959 -22.43061969 334.39890359 -40.3046875 343.3359375 C-40.6346875 344.3259375 -40.9646875 345.3159375 -41.3046875 346.3359375 C-43.37101952 348.18708801 -45.4243272 349.89748119 -47.6171875 351.5859375 C-48.56561523 352.31901123 -48.56561523 352.31901123 -49.53320312 353.06689453 C-59.47615616 360.62383802 -69.48544698 365.52734069 -81.3046875 369.3359375 C-82.2946875 369.6659375 -83.2846875 369.9959375 -84.3046875 370.3359375 C-88.75768422 370.65349188 -93.2167401 370.66037888 -97.6796875 370.7109375 C-98.89269531 370.74832031 -100.10570312 370.78570312 -101.35546875 370.82421875 C-115.54050591 370.96046777 -127.43504969 365.76785506 -137.8671875 356.2734375 C-154.02084394 339.14531455 -157.07568463 315.8463085 -156.5546875 293.2890625 C-154.67853154 247.47333397 -137.12764682 203.62361995 -116.3046875 163.3359375 C-115.95970215 162.66530273 -115.6147168 161.99466797 -115.25927734 161.30371094 C-107.39476698 146.06374984 -98.9447971 131.16495129 -89.55859375 116.80859375 C-87.48090637 113.62917201 -85.47458363 110.40852341 -83.47558594 107.17919922 C-79.90796398 101.4164278 -76.29278593 95.73446233 -72.34375 90.22265625 C-70.62151727 87.7844762 -68.93726405 85.32833467 -67.265625 82.85546875 C-62.10682734 75.22925664 -56.99299956 67.67025207 -51.1171875 60.5703125 C-49.14418592 58.13807779 -47.31663385 55.63133442 -45.4921875 53.0859375 C-38.51482912 43.39972234 -30.99996736 34.1235336 -23.4140625 24.91015625 C-21.37619475 22.42320283 -19.36789871 19.9153322 -17.3671875 17.3984375 C-16.39845703 16.19767578 -16.39845703 16.19767578 -15.41015625 14.97265625 C-13.84468119 13.01218192 -12.3130024 11.03797688 -10.79296875 9.04296875 C-9.92241864 7.93186551 -9.05133211 6.82118233 -8.1796875 5.7109375 C-7.39335937 4.68742188 -6.60703125 3.66390625 -5.796875 2.609375 C-3.3046875 0.3359375 -3.3046875 0.3359375 0 0 Z " fill="#F12304" transform="translate(286.3046875,-0.3359375)"/>
<path d="M0 0 C38.28 0 76.56 0 116 0 C116.04405765 37.29242681 116.08099872 74.58482916 116.10213066 111.87727454 C116.10463219 116.27593047 116.10722083 120.67458634 116.10986328 125.07324219 C116.1103879 125.94896769 116.11091252 126.8246932 116.11145304 127.72695585 C116.12016529 141.92287212 116.13593976 156.11877226 116.15430559 170.31467895 C116.17298187 184.87150734 116.1841119 199.42832726 116.18817699 213.98516715 C116.19092678 222.97384172 116.19962434 231.9624707 116.21583293 240.95113124 C116.2263718 247.10767463 116.22960769 253.26419431 116.22700275 259.42074607 C116.22571661 262.97739314 116.22774403 266.53396033 116.23841095 270.09059334 C116.24986957 273.93911828 116.24599779 277.78753767 116.24050903 281.63607788 C116.24633472 282.77030005 116.2521604 283.90452222 116.25816262 285.07311475 C116.25418052 286.09773175 116.25019842 287.12234875 116.24609566 288.17801476 C116.24723482 289.51197228 116.24723482 289.51197228 116.24839699 290.87287843 C116 293 116 293 114 295 C111.05903263 295.17539436 108.21346651 295.23132375 105.2734375 295.1953125 C104.41062164 295.1924826 103.54780579 295.18965271 102.65884399 295.18673706 C99.8974228 295.17552333 97.1363235 295.15041684 94.375 295.125 C92.50521301 295.11497173 90.63542095 295.10584562 88.765625 295.09765625 C84.17695891 295.07558012 79.58853407 295.04104234 75 295 C72.36361543 290.04122643 72.72719172 285.1054042 72.75949097 279.64201355 C72.75778212 278.58826847 72.75607327 277.53452339 72.75431263 276.44884664 C72.75101449 272.91268763 72.76202695 269.37671774 72.77294922 265.84057617 C72.77351326 263.3078512 72.77319691 260.7751259 72.77206421 258.24240112 C72.77160855 252.78690872 72.77728686 247.33147739 72.78853989 241.87599754 C72.80479921 233.98831871 72.81000333 226.100663 72.81251587 218.21296922 C72.81689229 205.41548524 72.83019997 192.61802677 72.84912109 179.82055664 C72.86748125 167.38956835 72.88163709 154.958587 72.89013672 142.52758789 C72.89066217 141.76124364 72.89118761 140.9948994 72.89172898 140.2053326 C72.89433907 136.3607795 72.89686648 132.51622636 72.89935279 128.67167318 C72.92008365 96.78109674 72.9554565 64.89055234 73 33 C71.72623678 32.51751789 70.45201289 32.03625184 69.17759705 31.55549622 C68.4680635 31.2873602 67.75852995 31.01922419 67.02749538 30.74296284 C64.56827891 29.84179854 62.08832451 29.0924378 59.56640625 28.38671875 C58.59695068 28.11142334 57.62749512 27.83612793 56.62866211 27.55249023 C55.61682861 27.26704346 54.60499512 26.98159668 53.5625 26.6875 C46.43091376 24.64905538 39.39060973 22.52118797 32.4375 19.9375 C24.57394221 17.02064247 16.53387324 14.94071519 8.40014648 12.91577148 C7.45341064 12.67930908 6.5066748 12.44284668 5.53125 12.19921875 C4.68111328 11.99127686 3.83097656 11.78333496 2.95507812 11.5690918 C1 11 1 11 0 10 C0 6.7 0 3.4 0 0 Z " fill="#030B54" transform="translate(0,73)"/>
<path d="M0 0 C38.28 0 76.56 0 116 0 C116.04405765 37.29242681 116.08099872 74.58482916 116.10213066 111.87727454 C116.10463219 116.27593047 116.10722083 120.67458634 116.10986328 125.07324219 C116.1103879 125.94896769 116.11091252 126.8246932 116.11145304 127.72695585 C116.12016529 141.92287212 116.13593976 156.11877226 116.15430559 170.31467895 C116.17298187 184.87150734 116.1841119 199.42832726 116.18817699 213.98516715 C116.19092678 222.97384172 116.19962434 231.9624707 116.21583293 240.95113124 C116.2263718 247.10767463 116.22960769 253.26419431 116.22700275 259.42074607 C116.22571661 262.97739314 116.22774403 266.53396033 116.23841095 270.09059334 C116.24986957 273.93911828 116.24599779 277.78753767 116.24050903 281.63607788 C116.24633472 282.77030005 116.2521604 283.90452222 116.25816262 285.07311475 C116.25418052 286.09773175 116.25019842 287.12234875 116.24609566 288.17801476 C116.24723482 289.51197228 116.24723482 289.51197228 116.24839699 290.87287843 C116 293 116 293 114 295 C111.05903263 295.17539436 108.21346651 295.23132375 105.2734375 295.1953125 C104.41062164 295.1924826 103.54780579 295.18965271 102.65884399 295.18673706 C99.8974228 295.17552333 97.1363235 295.15041684 94.375 295.125 C92.50521301 295.11497173 90.63542095 295.10584562 88.765625 295.09765625 C84.17695891 295.07558012 79.58853407 295.04104234 75 295 C72.36361543 290.04122643 72.72719172 285.1054042 72.75949097 279.64201355 C72.75778212 278.58826847 72.75607327 277.53452339 72.75431263 276.44884664 C72.75101449 272.91268763 72.76202695 269.37671774 72.77294922 265.84057617 C72.77351326 263.3078512 72.77319691 260.7751259 72.77206421 258.24240112 C72.77160855 252.78690872 72.77728686 247.33147739 72.78853989 241.87599754 C72.80479921 233.98831871 72.81000333 226.100663 72.81251587 218.21296922 C72.81689229 205.41548524 72.83019997 192.61802677 72.84912109 179.82055664 C72.86748125 167.38956835 72.88163709 154.958587 72.89013672 142.52758789 C72.89066217 141.76124364 72.89118761 140.9948994 72.89172898 140.2053326 C72.89433907 136.3607795 72.89686648 132.51622636 72.89935279 128.67167318 C72.92008365 96.78109674 72.9554565 64.89055234 73 33 C70.36 32.01 67.72 31.02 65 30 C65 29.67 65 29.34 65 29 C71.625 28.75 71.625 28.75 75 31 C75.37259549 32.92834866 75.37259549 32.92834866 75.36914349 35.33784676 C75.37511663 36.25447849 75.38108978 37.17111023 75.38724393 38.11551869 C75.3785054 39.12912146 75.36976688 40.14272423 75.36076355 41.18704224 C75.36332682 42.2586418 75.3658901 43.33024137 75.36853105 44.43431365 C75.37349862 48.04896966 75.35692684 51.66321408 75.34057617 55.27783203 C75.33973054 57.8593749 75.34020378 60.44091849 75.34190369 63.02246094 C75.34347903 68.59261514 75.33404273 74.16266416 75.31719017 79.7327919 C75.29283988 87.78630751 75.28499898 95.83977211 75.2812262 103.89332055 C75.27465546 116.95869437 75.25467746 130.02401211 75.22631836 143.08935547 C75.19879386 155.78336302 75.17755242 168.47735536 75.16479492 181.17138672 C75.16400675 181.95345411 75.16321858 182.73552151 75.16240653 183.54128791 C75.1584915 187.46457322 75.15470035 191.38785863 75.15097082 195.31114411 C75.11985554 227.87413861 75.06617894 260.43705782 75 293 C87.87 293 100.74 293 114 293 C114 196.64 114 100.28 114 1 C57.96881741 1.1001925 57.96881741 1.1001925 2 3 C2 4.98 2 6.96 2 9 C6.62 10.32 11.24 11.64 16 13 C11.7778123 14.05554693 10.36022037 13.8031082 6.3125 12.625 C5.33925781 12.34914063 4.36601563 12.07328125 3.36328125 11.7890625 C1 11 1 11 0 10 C0 6.7 0 3.4 0 0 Z " fill="#A6A9C2" transform="translate(0,73)"/>
<path d="M0 0 C0.88945312 0.11085938 1.77890625 0.22171875 2.6953125 0.3359375 C-0.3327753 6.87660715 -4.11467733 12.48814069 -8.3046875 18.3359375 C-11.79242638 23.36437656 -14.97591755 28.44683723 -17.89453125 33.82421875 C-20.23465254 37.99235723 -22.78233085 42.03173323 -25.30078125 46.09375 C-28.01280779 50.4816292 -30.6640378 54.90484729 -33.3046875 59.3359375 C-34.2946875 58.6759375 -35.2846875 58.0159375 -36.3046875 57.3359375 C-35.9746875 56.0159375 -35.6446875 54.6959375 -35.3046875 53.3359375 C-35.9646875 53.3359375 -36.6246875 53.3359375 -37.3046875 53.3359375 C-37.3046875 52.0159375 -37.3046875 50.6959375 -37.3046875 49.3359375 C-40.46395111 51.02011539 -40.46395111 51.02011539 -41.2421875 53.8359375 C-42.5264798 56.85780175 -43.46783893 56.96326884 -46.3046875 58.3359375 C-47.10997639 60.38594621 -47.10997639 60.38594621 -47.3046875 62.3359375 C-47.6346875 61.6759375 -47.9646875 61.0159375 -48.3046875 60.3359375 C-49.2946875 60.9959375 -50.2846875 61.6559375 -51.3046875 62.3359375 C-45.01529635 48.75585911 -32.87078275 36.39571187 -23.4140625 24.91015625 C-21.37619475 22.42320283 -19.36789871 19.9153322 -17.3671875 17.3984375 C-16.72136719 16.59792969 -16.07554687 15.79742187 -15.41015625 14.97265625 C-13.84468119 13.01218192 -12.3130024 11.03797688 -10.79296875 9.04296875 C-9.92241864 7.93186551 -9.05133211 6.82118233 -8.1796875 5.7109375 C-7.39335937 4.68742188 -6.60703125 3.66390625 -5.796875 2.609375 C-3.3046875 0.3359375 -3.3046875 0.3359375 0 0 Z " fill="#EF3016" transform="translate(286.3046875,-0.3359375)"/>
<path d="M0 0 C1.12280273 1.62792969 1.12280273 1.62792969 2 4 C1.32836914 6.77050781 1.32836914 6.77050781 0.03515625 9.953125 C-0.43180664 11.12214355 -0.89876953 12.29116211 -1.37988281 13.49560547 C-1.89848811 14.74731925 -2.41770583 15.99877945 -2.9375 17.25 C-3.4564501 18.52838429 -3.97435086 19.80719505 -4.49121094 21.08642578 C-5.97153375 24.73390907 -7.48203937 28.36801816 -9 32 C-9.36432129 32.8755957 -9.72864258 33.75119141 -10.10400391 34.65332031 C-14.00552301 43.9694799 -18.38383627 53.02022862 -23 62 C-25 59 -25 59 -26 56 C-25.34 56 -24.68 56 -24 56 C-23.67 54.35 -23.34 52.7 -23 51 C-24.65 51 -26.3 51 -28 51 C-28.33 51.66 -28.66 52.32 -29 53 C-30.485 53.495 -30.485 53.495 -32 54 C-30.69747858 50.40858172 -29.13644519 47.57135811 -26.875 44.5 C-19.24391818 33.76634281 -13.05725091 22.51964077 -7.12426758 10.7824707 C-6.63337646 9.82042725 -6.14248535 8.85838379 -5.63671875 7.8671875 C-5.20061279 7.00206543 -4.76450684 6.13694336 -4.31518555 5.24560547 C-3.06998896 3.11950221 -1.82623647 1.63556523 0 0 Z " fill="#EC5046" transform="translate(316,216)"/>
<path d="M0 0 C38.28 0 76.56 0 116 0 C116 49.83 116 99.66 116 151 C115.67 151 115.34 151 115 151 C115 101.5 115 52 115 1 C99.510625 1.144375 84.02125 1.28875 68.0625 1.4375 C60.7768396 1.50215454 60.7768396 1.50215454 53.34399414 1.56811523 C48.9188101 1.61145556 48.9188101 1.61145556 44.49363708 1.65589905 C42.55106518 1.67488592 40.60847704 1.6922598 38.6658783 1.70826721 C26.41252107 1.81061403 14.22445888 2.13140676 2 3 C2 4.98 2 6.96 2 9 C6.62 10.32 11.24 11.64 16 13 C11.7778123 14.05554693 10.36022037 13.8031082 6.3125 12.625 C5.33925781 12.34914063 4.36601563 12.07328125 3.36328125 11.7890625 C1 11 1 11 0 10 C0 6.7 0 3.4 0 0 Z " fill="#CCCCDC" transform="translate(0,73)"/>
<path d="M0 0 C1.12939453 1.61035156 1.12939453 1.61035156 2 4 C1.28076172 6.89746094 1.28076172 6.89746094 -0.0703125 10.234375 C-0.555 11.44867188 -1.0396875 12.66296875 -1.5390625 13.9140625 C-2.06764924 15.19273276 -2.59629549 16.47137843 -3.125 17.75 C-3.63154824 19.01248405 -4.1367708 20.27550086 -4.640625 21.5390625 C-7.18314008 27.83544801 -9.84276786 33.9876632 -13 40 C-13.33 40 -13.66 40 -14 40 C-14 38.35 -14 36.7 -14 35 C-13.34 35 -12.68 35 -12 35 C-12 34.34 -12 33.68 -12 33 C-13.98 33 -15.96 33 -18 33 C-15.77565485 27.15973767 -12.84592198 21.68348146 -9.97753906 16.14208984 C-8.99733568 14.24484305 -8.02594375 12.34324556 -7.0546875 10.44140625 C-6.43282744 9.23670245 -5.81044982 8.03226565 -5.1875 6.828125 C-4.62417969 5.7340332 -4.06085938 4.63994141 -3.48046875 3.51269531 C-2 1 -2 1 0 0 Z " fill="#ED3428" transform="translate(316,216)"/>
<path d="M0 0 C1.33224609 0.16822266 1.33224609 0.16822266 2.69140625 0.33984375 C0.09135024 5.95596474 -2.94880665 10.84296748 -6.5625 15.86328125 C-8.19841074 18.18356628 -9.70640219 20.54139325 -11.18359375 22.96484375 C-12.23546875 24.63546875 -12.23546875 24.63546875 -13.30859375 26.33984375 C-13.63859375 26.33984375 -13.96859375 26.33984375 -14.30859375 26.33984375 C-14.72036129 22.73687781 -14.46217905 21.55582308 -12.30859375 18.52734375 C-11.64859375 17.80546875 -10.98859375 17.08359375 -10.30859375 16.33984375 C-11.45328125 17.32984375 -11.45328125 17.32984375 -12.62109375 18.33984375 C-15.30859375 20.33984375 -15.30859375 20.33984375 -18.30859375 20.33984375 C-18.30859375 20.99984375 -18.30859375 21.65984375 -18.30859375 22.33984375 C-18.96859375 22.00984375 -19.62859375 21.67984375 -20.30859375 21.33984375 C-18.72332948 19.26115285 -17.12367553 17.19568812 -15.5078125 15.140625 C-14.36037818 13.67932765 -13.21490203 12.21628803 -12.09228516 10.73583984 C-10.82721016 9.0691072 -9.53875893 7.42273236 -8.24609375 5.77734375 C-7.45074219 4.74480469 -6.65539062 3.71226563 -5.8359375 2.6484375 C-3.30859375 0.33984375 -3.30859375 0.33984375 0 0 Z " fill="#E95650" transform="translate(286.30859375,-0.33984375)"/>
<path d="M0 0 C0.66 0.66 1.32 1.32 2 2 C1.67 2.66 1.34 3.32 1 4 C0.34 4 -0.32 4 -1 4 C-1.54449289 5.63347868 -2.07836444 7.2713171 -2.55615234 8.92553711 C-4.41206986 15.06002956 -7.2117753 20.16267186 -10.625 25.5625 C-11.12773437 26.38041016 -11.63046875 27.19832031 -12.1484375 28.04101562 C-14.84371557 32.37737025 -14.84371557 32.37737025 -16 34 C-16.33 34 -16.66 34 -17 34 C-17.25 28.375 -17.25 28.375 -15 25 C-14.01 25 -13.02 25 -12 25 C-12.33 23.68 -12.66 22.36 -13 21 C-12.01 21 -11.02 21 -10 21 C-9.67 19.68 -9.34 18.36 -9 17 C-9.66 16.67 -10.32 16.34 -11 16 C-11.33 16.66 -11.66 17.32 -12 18 C-12.99 18.66 -13.98 19.32 -15 20 C-14.67 18.68 -14.34 17.36 -14 16 C-14.66 16 -15.32 16 -16 16 C-14.4705003 12.55862568 -12.54630448 9.7777867 -10 7 C-9.01 7 -8.02 7 -7 7 C-7 6.34 -7 5.68 -7 5 C-5.35666496 3.96210419 -3.68756133 2.96432076 -2 2 C-1.34 1.34 -0.68 0.68 0 0 Z " fill="#ED4330" transform="translate(275,15)"/>
<path d="M0 0 C1.75074015 2.62611022 3.15770769 5.18202857 4.5625 8 C4.99691406 8.86625 5.43132812 9.7325 5.87890625 10.625 C7 13 7 13 8 16 C9.71519747 17.02651373 9.71519747 17.02651373 12 18 C13.19236674 18.67902434 14.37953458 19.36722645 15.5625 20.0625 C24.07322962 24.85945669 34.59668296 23.50453073 44 22 C44 22.99 44 23.98 44 25 C39.64028686 25.16775443 35.28038583 25.32829897 30.92016602 25.48217773 C29.43702051 25.53553529 27.95394439 25.59085973 26.47094727 25.64819336 C24.33885663 25.73027921 22.20661621 25.80528001 20.07421875 25.87890625 C18.14968872 25.94960327 18.14968872 25.94960327 16.1862793 26.02172852 C13 26 13 26 10 25 C10 23.68 10 22.36 10 21 C8.68 21 7.36 21 6 21 C6.33 19.02 6.66 17.04 7 15 C4.21081851 13.89459074 4.21081851 13.89459074 2 14 C1.87625 13.030625 1.7525 12.06125 1.625 11.0625 C1.41875 10.051875 1.2125 9.04125 1 8 C0.34 7.67 -0.32 7.34 -1 7 C-0.67 6.01 -0.34 5.02 0 4 C0 2.68 0 1.36 0 0 Z " fill="#EB6B65" transform="translate(172,308)"/>
<path d="M0 0 C0.53625 0.165 1.0725 0.33 1.625 0.5 C4.45886009 1.09660212 7.1119806 1.0656368 10 1 C9.24470474 4.86252257 7.60515228 8.20180367 5.9375 11.75 C5.11572266 13.50570313 5.11572266 13.50570313 4.27734375 15.296875 C3.85582031 16.18890625 3.43429687 17.0809375 3 18 C1 15 1 15 0 12 C0.66 12 1.32 12 2 12 C2.33 10.35 2.66 8.7 3 7 C1.35 7 -0.3 7 -2 7 C-2.33 7.66 -2.66 8.32 -3 9 C-3.99 9.33 -4.98 9.66 -6 10 C-4.6302836 6.00499382 -2.74277578 3.19990508 0 0 Z " fill="#F02923" transform="translate(290,260)"/>
<path d="M0 0 C1.09716797 1.68847656 1.09716797 1.68847656 2 4 C1.49267578 6.38183594 1.49267578 6.38183594 0.4453125 8.984375 C0.07792969 9.91894531 -0.28945313 10.85351562 -0.66796875 11.81640625 C-1.06628906 12.78449219 -1.46460938 13.75257813 -1.875 14.75 C-2.26558594 15.73355469 -2.65617187 16.71710938 -3.05859375 17.73046875 C-4.02548116 20.15947858 -5.00627541 22.58187351 -6 25 C-6.33 25 -6.66 25 -7 25 C-7.33 23.02 -7.66 21.04 -8 19 C-8.66 19 -9.32 19 -10 19 C-8.65692112 14.69310762 -7.01109126 10.72476571 -5 6.6875 C-4.484375 5.63949219 -3.96875 4.59148437 -3.4375 3.51171875 C-2 1 -2 1 0 0 Z " fill="#ED635C" transform="translate(316,216)"/>
<path d="M0 0 C0.99 0.33 1.98 0.66 3 1 C1.35169863 4.6756239 -0.89996408 7.722137 -3.3125 10.9375 C-4.07175781 11.95714844 -4.83101563 12.97679687 -5.61328125 14.02734375 C-9.04933673 18.30694804 -12.10829525 21.55414763 -17 24 C-17.33 24.99 -17.66 25.98 -18 27 C-18.75 25.25 -18.75 25.25 -19 23 C-17.125 20.875 -17.125 20.875 -15 19 C-14.67 18.34 -14.34 17.68 -14 17 C-13.34 17 -12.68 17 -12 17 C-11.67 16.34 -11.34 15.68 -11 15 C-10.34 15.33 -9.68 15.66 -9 16 C-9.33 14.68 -9.66 13.36 -10 12 C-9.01 12 -8.02 12 -7 12 C-7 11.34 -7 10.68 -7 10 C-6.34 10 -5.68 10 -5 10 C-5 8.68 -5 7.36 -5 6 C-3.68 6 -2.36 6 -1 6 C-0.67 4.02 -0.34 2.04 0 0 Z " fill="#EB5046" transform="translate(263,319)"/>
<path d="M0 0 C0.33 0 0.66 0 1 0 C1.33 1.65 1.66 3.3 2 5 C3.65 5 5.3 5 7 5 C7 8.63 7 12.26 7 16 C6.34 16 5.68 16 5 16 C5 17.65 5 19.3 5 21 C5.66 21.33 6.32 21.66 7 22 C6.34 22.99 5.68 23.98 5 25 C1.75623505 16.62656023 0.28939638 8.97128765 0 0 Z " fill="#F01D19" transform="translate(131,311)"/>
<path d="M0 0 C0.33 0 0.66 0 1 0 C1.33 8.58 1.66 17.16 2 26 C1.67 26 1.34 26 1 26 C0.67 23.03 0.34 20.06 0 17 C-1.32 17 -2.64 17 -4 17 C-4 12.71 -4 8.42 -4 4 C-2.68 4 -1.36 4 0 4 C0 2.68 0 1.36 0 0 Z " fill="#EF4946" transform="translate(169,276)"/>
<path d="M0 0 C1.17189558 3.51568674 0.83725505 3.9991852 -0.65234375 7.23046875 C-1.01650391 8.03291016 -1.38066406 8.83535156 -1.75585938 9.66210938 C-2.34077148 10.91217773 -2.34077148 10.91217773 -2.9375 12.1875 C-3.32357422 13.03248047 -3.70964844 13.87746094 -4.10742188 14.74804688 C-5.06300701 16.83617735 -6.02743783 18.91973604 -7 21 C-7.33 21 -7.66 21 -8 21 C-8.22134176 18.87631556 -8.42670007 16.75095976 -8.625 14.625 C-8.74101562 13.44164062 -8.85703125 12.25828125 -8.9765625 11.0390625 C-8.98429688 10.03617188 -8.99203125 9.03328125 -9 8 C-8.34 7.34 -7.68 6.68 -7 6 C-6.01 6 -5.02 6 -4 6 C-4 4.35 -4 2.7 -4 1 C-2.68 0.67 -1.36 0.34 0 0 Z " fill="#EE4333" transform="translate(209,141)"/>
<path d="M0 0 C2.86724686 0.57344937 3.8614515 0.8614515 6 3 C6 3.99 6 4.98 6 6 C6.66 6 7.32 6 8 6 C8 6.66 8 7.32 8 8 C8.99 7.67 9.98 7.34 11 7 C12.38600791 6.86587578 13.77668582 6.77653442 15.16796875 6.71875 C15.97943359 6.68136719 16.79089844 6.64398438 17.62695312 6.60546875 C18.47193359 6.57066406 19.31691406 6.53585937 20.1875 6.5 C26.17923399 6.24742105 32.05734562 5.82251272 38 5 C38 5.99 38 6.98 38 8 C33.64028686 8.16775443 29.28038583 8.32829897 24.92016602 8.48217773 C23.43702051 8.53553529 21.95394439 8.59085973 20.47094727 8.64819336 C18.33885663 8.73027921 16.20661621 8.80528001 14.07421875 8.87890625 C12.14968872 8.94960327 12.14968872 8.94960327 10.1862793 9.02172852 C7 9 7 9 4 8 C4 6.68 4 5.36 4 4 C2.68 4 1.36 4 0 4 C0 2.68 0 1.36 0 0 Z " fill="#EE1F1A" transform="translate(178,325)"/>
<path d="M0 0 C0 2.62113708 -0.31292445 4.50935112 -1 7 C0.32 7 1.64 7 3 7 C1.61964507 9.85059343 0.10703513 12.55880904 -1.5625 15.25 C-1.99691406 15.95640625 -2.43132812 16.6628125 -2.87890625 17.390625 C-3.43384766 18.18726563 -3.43384766 18.18726563 -4 19 C-4.33 19 -4.66 19 -5 19 C-5.41176754 15.39703406 -5.1535853 14.21597933 -3 11.1875 C-2.34 10.465625 -1.68 9.74375 -1 9 C-2.1446875 9.99 -2.1446875 9.99 -3.3125 11 C-6 13 -6 13 -9 13 C-9 13.66 -9 14.32 -9 15 C-9.66 14.67 -10.32 14.34 -11 14 C-3.70159453 4.58997722 -3.70159453 4.58997722 0 0 Z " fill="#EA6A60" transform="translate(277,7)"/>
<path d="M0 0 C2.97 0.33 5.94 0.66 9 1 C9.33 2.32 9.66 3.64 10 5 C17.0580686 9.03579708 26.26455349 8.54022183 34.125 8.6875 C35.36765625 8.72166016 36.6103125 8.75582031 37.890625 8.79101562 C40.92699297 8.87276399 43.96309868 8.94215122 47 9 C47 9.33 47 9.66 47 10 C42.60453117 10.14752942 38.20971384 10.23481071 33.8125 10.3125 C31.97268555 10.3753418 31.97268555 10.3753418 30.09570312 10.43945312 C19.05181139 10.58515091 8.75998068 8.00798454 0 1 C0 0.67 0 0.34 0 0 Z " fill="#EC9590" transform="translate(155,360)"/>
<path d="M0 0 C1.98 0 3.96 0 6 0 C3.39686352 3.14583985 0.46007698 4.20647624 -3.3125 5.625 C-4.42238281 6.05039062 -5.53226563 6.47578125 -6.67578125 6.9140625 C-9.7971429 7.93373176 -12.75190856 8.55774852 -16 9 C-15.34 8.67 -14.68 8.34 -14 8 C-14 6.68 -14 5.36 -14 4 C-11.03 4.33 -8.06 4.66 -5 5 C-5 4.34 -5 3.68 -5 3 C-3.35 3 -1.7 3 0 3 C0 2.01 0 1.02 0 0 Z " fill="#EB6966" transform="translate(218,360)"/>
<path d="M0 0 C0.33 0 0.66 0 1 0 C0.35711363 7.7615834 -0.5277576 15.46901486 -1.5625 23.1875 C-1.70107422 24.23486328 -1.83964844 25.28222656 -1.98242188 26.36132812 C-2.31962894 28.90782283 -2.65884727 31.45403143 -3 34 C-3.33 34 -3.66 34 -4 34 C-3.98259766 32.12054688 -3.98259766 32.12054688 -3.96484375 30.203125 C-3.95546284 28.55208483 -3.94636296 26.90104304 -3.9375 25.25 C-3.92912109 24.425 -3.92074219 23.6 -3.91210938 22.75 C-3.90727539 21.55117188 -3.90727539 21.55117188 -3.90234375 20.328125 C-3.89710693 19.5949707 -3.89187012 18.86181641 -3.88647461 18.10644531 C-3.92819427 15.96349002 -3.92819427 15.96349002 -4.59130859 13.82055664 C-4.72617676 13.21977295 -4.86104492 12.61898926 -5 12 C-4.03377467 10.96732938 -3.02903685 9.97009441 -2 9 C-1.21643098 6.73606029 -1.21643098 6.73606029 -0.8125 4.3125 C-0.65394531 3.50425781 -0.49539062 2.69601563 -0.33203125 1.86328125 C-0.22246094 1.24839844 -0.11289063 0.63351563 0 0 Z " fill="#EC7971" transform="translate(174,242)"/>
<path d="M0 0 C0.66 0.33 1.32 0.66 2 1 C2 1.33 2 1.66 2 2 C3.32 1.67 4.64 1.34 6 1 C6.33 1.66 6.66 2.32 7 3 C6.34 3 5.68 3 5 3 C5 3.99 5 4.98 5 6 C4.01 6 3.02 6 2 6 C2.33 7.32 2.66 8.64 3 10 C1.35 10.33 -0.3 10.66 -2 11 C-3.14947895 7.44706507 -3.0868937 6.20023331 -1.5625 2.6875 C-1.046875 1.800625 -0.53125 0.91375 0 0 Z " fill="#F11D05" transform="translate(260,30)"/>
<path d="M0 0 C0.99 0 1.98 0 3 0 C2.37348573 2.8624741 1.47829483 5.28081653 0.15234375 7.890625 C-0.20537109 8.59960938 -0.56308594 9.30859375 -0.93164062 10.0390625 C-1.30482422 10.76867187 -1.67800781 11.49828125 -2.0625 12.25 C-2.43955078 12.99507812 -2.81660156 13.74015625 -3.20507812 14.5078125 C-4.13310673 16.34037531 -5.06607179 18.17043676 -6 20 C-6.33 20 -6.66 20 -7 20 C-7 18.35 -7 16.7 -7 15 C-6.34 15 -5.68 15 -5 15 C-5 14.34 -5 13.68 -5 13 C-5.99 12.67 -6.98 12.34 -8 12 C-7.01 12 -6.02 12 -5 12 C-4.87625 11.195625 -4.7525 10.39125 -4.625 9.5625 C-4.41875 8.716875 -4.2125 7.87125 -4 7 C-3.34 6.67 -2.68 6.34 -2 6 C-2 5.34 -2 4.68 -2 4 C-1.34 4 -0.68 4 0 4 C0 2.68 0 1.36 0 0 Z " fill="#EC554B" transform="translate(226,101)"/>
<path d="M0 0 C0.66 0.66 1.32 1.32 2 2 C1.67 2.66 1.34 3.32 1 4 C0.34 4 -0.32 4 -1 4 C-1.89130413 6.6739124 -2.47731534 9.23723823 -3 12 C-5.96175123 11.38722388 -7.38058783 10.74627478 -10 9 C-9.67 8.34 -9.34 7.68 -9 7 C-8.34 7 -7.68 7 -7 7 C-7 6.34 -7 5.68 -7 5 C-5.35666496 3.96210419 -3.68756133 2.96432076 -2 2 C-1.34 1.34 -0.68 0.68 0 0 Z " fill="#F11D09" transform="translate(275,15)"/>
<path d="M0 0 C0.33 0.66 0.66 1.32 1 2 C0.06421005 4.35981813 -0.93347808 6.69631264 -2 9 C-1.01 9.33 -0.02 9.66 1 10 C0.01 10.495 0.01 10.495 -1 11 C-1.268125 11.66 -1.53625 12.32 -1.8125 13 C-3 15 -3 15 -5.625 15.75 C-6.40875 15.8325 -7.1925 15.915 -8 16 C-6.42986223 10.03347646 -3.24970218 5.17090975 0 0 Z " fill="#EC4335" transform="translate(185,136)"/>
<path d="M0 0 C0.99 1.32 1.98 2.64 3 4 C1.68 4.33 0.36 4.66 -1 5 C-1 6.32 -1 7.64 -1 9 C-1.7425 8.9175 -2.485 8.835 -3.25 8.75 C-6.78157027 9.07105184 -7.76630364 10.35265617 -10 13 C-10.66 12.67 -11.32 12.34 -12 12 C-8.04 8.04 -4.08 4.08 0 0 Z " fill="#F06358" transform="translate(264,293)"/>
<path d="M0 0 C0 3.70098076 -0.73605275 6.52414506 -2 10 C-4.0625 11.1875 -4.0625 11.1875 -6 12 C-6.80528889 14.05000871 -6.80528889 14.05000871 -7 16 C-7.33 15.34 -7.66 14.68 -8 14 C-8.99 14.66 -9.98 15.32 -11 16 C-9.38677027 12.44413762 -7.24743046 9.45249622 -4.9375 6.3125 C-4.22464844 5.33925781 -3.51179687 4.36601563 -2.77734375 3.36328125 C-1 1 -1 1 0 0 Z " fill="#EC6054" transform="translate(246,46)"/>
<path d="M0 0 C0.33 0 0.66 0 1 0 C2.25 6.625 2.25 6.625 0 10 C-0.5477493 12.41228945 -0.5477493 12.41228945 -0.8515625 15.10546875 C-0.98046875 16.08837891 -1.109375 17.07128906 -1.2421875 18.08398438 C-1.36851562 19.10814453 -1.49484375 20.13230469 -1.625 21.1875 C-1.7590625 22.22326172 -1.893125 23.25902344 -2.03125 24.32617188 C-2.36120202 26.88330003 -2.68382514 29.44113797 -3 32 C-3.33 32 -3.66 32 -4 32 C-4.45043896 23.7419524 -2.90401893 16.01521714 -1.36376953 7.94384766 C-0.86943922 5.30233228 -0.43026571 2.65260898 0 0 Z " fill="#EB847C" transform="translate(135,254)"/>
<path d="M0 0 C0.33 0 0.66 0 1 0 C1.13277344 0.74765625 1.26554688 1.4953125 1.40234375 2.265625 C1.57894531 3.25046875 1.75554687 4.2353125 1.9375 5.25 C2.19853516 6.71179688 2.19853516 6.71179688 2.46484375 8.203125 C3.08720353 11.63933997 3.08720353 11.63933997 4 15 C4.66 15.33 5.32 15.66 6 16 C5.67 17.65 5.34 19.3 5 21 C5.66 21.33 6.32 21.66 7 22 C6.34 22.99 5.68 23.98 5 25 C1.75623505 16.62656023 0.28939638 8.97128765 0 0 Z " fill="#EC817A" transform="translate(131,311)"/>
<path d="M0 0 C0.33 0.66 0.66 1.32 1 2 C0.10333658 4.24310013 -0.89146683 6.44754321 -1.9375 8.625 C-2.50339844 9.81351563 -3.06929688 11.00203125 -3.65234375 12.2265625 C-4.09707031 13.14179688 -4.54179687 14.05703125 -5 15 C-5.33 15 -5.66 15 -6 15 C-6 13.35 -6 11.7 -6 10 C-5.34 10 -4.68 10 -4 10 C-4 9.34 -4 8.68 -4 8 C-5.98 8 -7.96 8 -10 8 C-9.67 7.01 -9.34 6.02 -9 5 C-6.69 5.33 -4.38 5.66 -2 6 C-2 4.35 -2 2.7 -2 1 C-1.34 0.67 -0.68 0.34 0 0 Z " fill="#EA655B" transform="translate(308,241)"/>
<path d="M0 0 C0.53625 0.165 1.0725 0.33 1.625 0.5 C4.45886009 1.09660212 7.1119806 1.0656368 10 1 C9.40072174 4.35595828 8.15377564 6.37801226 6 9 C6 8.34 6 7.68 6 7 C5.34 6.67 4.68 6.34 4 6 C4.99 6 5.98 6 7 6 C7 5.01 7 4.02 7 3 C1.19217364 4.26467106 1.19217364 4.26467106 -4 7 C-2.79618552 4.50638429 -1.54571278 2.31856917 0 0 Z " fill="#EA544E" transform="translate(290,260)"/>
<path d="M0 0 C1.0326802 2.78823655 1.04509293 3.8677274 0.0625 6.75 C-0.288125 7.4925 -0.63875 8.235 -1 9 C-0.34 9.33 0.32 9.66 1 10 C0.34 12.64 -0.32 15.28 -1 18 C-1.33 18 -1.66 18 -2 18 C-2.33 16.02 -2.66 14.04 -3 12 C-3.66 12 -4.32 12 -5 12 C-3.68938409 7.76570244 -2.05643741 3.92592596 0 0 Z " fill="#E9726B" transform="translate(311,223)"/>
<path d="M0 0 C0.99 0 1.98 0 3 0 C4.0070238 5.03511899 3.97387813 8.23947038 2 13 C0.1125606 9.72843838 -0.60106002 6.75003581 -1 3 C-0.67 2.01 -0.34 1.02 0 0 Z " fill="#EE3D24" transform="translate(183,196)"/>
<path d="M0 0 C0.33 0.99 0.66 1.98 1 3 C1.66 3 2.32 3 3 3 C2.34 4.32 1.68 5.64 1 7 C1 6.34 1 5.68 1 5 C0.34 5 -0.32 5 -1 5 C-1.03738281 5.61488281 -1.07476562 6.22976562 -1.11328125 6.86328125 C-1.17902344 7.67152344 -1.24476563 8.47976562 -1.3125 9.3125 C-1.37050781 10.11300781 -1.42851562 10.91351563 -1.48828125 11.73828125 C-2.08838825 14.39066259 -2.85708967 15.36503879 -5 17 C-5.66 17 -6.32 17 -7 17 C-5.1668733 11.00067626 -2.92678249 5.55079437 0 0 Z " fill="#EC625D" transform="translate(162,179)"/>
<path d="M0 0 C0.66 0 1.32 0 2 0 C1.31989774 3.89169629 -0.50899487 6.87181916 -2.5 10.25 C-3.1290625 11.32765625 -3.758125 12.4053125 -4.40625 13.515625 C-4.9321875 14.33546875 -5.458125 15.1553125 -6 16 C-6.33 16 -6.66 16 -7 16 C-7.25 10.375 -7.25 10.375 -5 7 C-4.01 7 -3.02 7 -2 7 C-2.33 5.68 -2.66 4.36 -3 3 C-2.01 3 -1.02 3 0 3 C0 2.01 0 1.02 0 0 Z " fill="#EB5F58" transform="translate(265,33)"/>
<path d="M0 0 C0.625 1.875 0.625 1.875 1 4 C0.34 4.66 -0.32 5.32 -1 6 C-1.103125 6.61875 -1.20625 7.2375 -1.3125 7.875 C-2.31601357 10.97676921 -4.41435978 12.14364292 -7 14 C-7.33 13.34 -7.66 12.68 -8 12 C-6.6015625 9.43359375 -6.6015625 9.43359375 -4.625 6.4375 C-3.65433594 4.95056641 -3.65433594 4.95056641 -2.6640625 3.43359375 C-1 1 -1 1 0 0 Z " fill="#EA5847" transform="translate(205,104)"/>
<path d="M0 0 C0.66 0.33 1.32 0.66 2 1 C2 1.99 2 2.98 2 4 C1.01 3.67 0.02 3.34 -1 3 C-1.33 3.66 -1.66 4.32 -2 5 C-2.66 5 -3.32 5 -4 5 C-4 5.66 -4 6.32 -4 7 C-7.4342662 7.85856655 -9.61682513 7.97591583 -13 7 C-12.31292969 6.66226562 -11.62585938 6.32453125 -10.91796875 5.9765625 C-10.01691406 5.53054688 -9.11585938 5.08453125 -8.1875 4.625 C-7.29417969 4.18414062 -6.40085938 3.74328125 -5.48046875 3.2890625 C-2.85443619 1.98133095 -2.85443619 1.98133095 0 0 Z " fill="#EC5952" transform="translate(233,320)"/>
<path d="M0 0 C-1.2491742 3.45925163 -2.67527795 6.14693203 -5 9 C-5 8.01 -5 7.02 -5 6 C-5.66 6 -6.32 6 -7 6 C-7 4.35 -7 2.7 -7 1 C-4.50935112 0.31292445 -2.62113708 0 0 0 Z " fill="#EE4B39" transform="translate(234,92)"/>
<path d="M0 0 C5.10843373 7.6626506 5.10843373 7.6626506 4.8125 11.3125 C4 13 4 13 2 14 C1.87625 13.030625 1.7525 12.06125 1.625 11.0625 C1.41875 10.051875 1.2125 9.04125 1 8 C0.34 7.67 -0.32 7.34 -1 7 C-0.67 6.01 -0.34 5.02 0 4 C0 2.68 0 1.36 0 0 Z " fill="#EB5546" transform="translate(172,308)"/>
<path d="M0 0 C0 0.66 0 1.32 0 2 C-0.66 2 -1.32 2 -2 2 C-2.33 4.31 -2.66 6.62 -3 9 C-5.76223278 6.23776722 -5.57856291 3.79293383 -6 0 C-3 -1 -3 -1 0 0 Z " fill="#F01F02" transform="translate(304,249)"/>
<path d="M0 0 C0 0.66 0 1.32 0 2 C-6.93 2 -13.86 2 -21 2 C-21 1.67 -21 1.34 -21 1 C-20.10796875 0.93941406 -19.2159375 0.87882812 -18.296875 0.81640625 C-16.54117188 0.69072266 -16.54117188 0.69072266 -14.75 0.5625 C-13.58984375 0.48128906 -12.4296875 0.40007812 -11.234375 0.31640625 C-1.86666667 -0.6 -1.86666667 -0.6 0 0 Z " fill="#E97767" transform="translate(216,331)"/>
<path d="M0 0 C0 3.41321235 -0.66867466 4.39472885 -2.5 7.1875 C-2.9640625 7.90292969 -3.428125 8.61835938 -3.90625 9.35546875 C-4.2671875 9.89816406 -4.628125 10.44085938 -5 11 C-5.66 10.34 -6.32 9.68 -7 9 C-7 8.01 -7 7.02 -7 6 C-6.01 6 -5.02 6 -4 6 C-4.33 5.01 -4.66 4.02 -5 3 C-4.34 3 -3.68 3 -3 3 C-3 2.34 -3 1.68 -3 1 C-2.01 0.67 -1.02 0.34 0 0 Z " fill="#ED5B51" transform="translate(278,301)"/>
<path d="M0 0 C1 2 1 2 0.22265625 4.3828125 C-0.16019531 5.28773438 -0.54304687 6.19265625 -0.9375 7.125 C-1.31777344 8.03507813 -1.69804687 8.94515625 -2.08984375 9.8828125 C-2.39019531 10.58148438 -2.69054687 11.28015625 -3 12 C-3.33 12 -3.66 12 -4 12 C-4 8.7 -4 5.4 -4 2 C-2.68 1.34 -1.36 0.68 0 0 Z " fill="#E94F4A" transform="translate(205,150)"/>
<path d="M0 0 C2 3 2 3 1.625 5.1875 C1.41875 5.785625 1.2125 6.38375 1 7 C0.34 7 -0.32 7 -1 7 C-1.66 8.32 -2.32 9.64 -3 11 C-3 10.34 -3 9.68 -3 9 C-3.66 9 -4.32 9 -5 9 C-3.7508258 5.54074837 -2.32472205 2.85306797 0 0 Z " fill="#EA5141" transform="translate(211,95)"/>
<path d="M0 0 C3.3 0 6.6 0 10 0 C10 0.99 10 1.98 10 3 C4.58461538 4.23076923 4.58461538 4.23076923 1.625 3.0625 C1.08875 2.711875 0.5525 2.36125 0 2 C0 1.34 0 0.68 0 0 Z " fill="#EE241C" transform="translate(168,364)"/>
<path d="M0 0 C2.31 0.33 4.62 0.66 7 1 C3.87378374 4.39417765 1.43458973 6.6062718 -3 8 C-3.33 7.01 -3.66 6.02 -4 5 C-2.35 5 -0.7 5 1 5 C0.67 3.35 0.34 1.7 0 0 Z " fill="#ED5F53" transform="translate(228,352)"/>
<path d="M0 0 C0.99 0 1.98 0 3 0 C2.4409112 3.24271506 1.5867822 4.93057424 -1 7 C-1.66 7 -2.32 7 -3 7 C-3.33 7.99 -3.66 8.98 -4 10 C-4.75 8.25 -4.75 8.25 -5 6 C-3.125 3.875 -3.125 3.875 -1 2 C-0.67 1.34 -0.34 0.68 0 0 Z " fill="#EE6568" transform="translate(249,336)"/>
<path d="M0 0 C0.99 0.33 1.98 0.66 3 1 C0.53846154 5.8 0.53846154 5.8 -2.1875 6.8125 C-2.785625 6.874375 -3.38375 6.93625 -4 7 C-4 7.66 -4 8.32 -4 9 C-4.66 8.67 -5.32 8.34 -6 8 C-4.02 5.36 -2.04 2.72 0 0 Z " fill="#EB5150" transform="translate(272,13)"/>
<path d="M0 0 C1.31534494 3.65857532 0.65468309 6.08026481 -0.4375 9.75 C-0.86869141 11.22726563 -0.86869141 11.22726563 -1.30859375 12.734375 C-1.53675781 13.48203125 -1.76492187 14.2296875 -2 15 C-2.33 15 -2.66 15 -3 15 C-3 3.625 -3 3.625 0 0 Z " fill="#ED7B75" transform="translate(178,227)"/>
<path d="M0 0 C-0.33 0.99 -0.66 1.98 -1 3 C-3.64 3 -6.28 3 -9 3 C-8.67 2.01 -8.34 1.02 -8 0 C-5.13822943 -1.43088528 -3.06624227 -0.59991697 0 0 Z " fill="#EE210A" transform="translate(300,259)"/>
<path d="M0 0 C0.66 0.99 1.32 1.98 2 3 C1.67 3.99 1.34 4.98 1 6 C-0.98 6.33 -2.96 6.66 -5 7 C-3.47793991 4.37098712 -2.15634036 2.15634036 0 0 Z " fill="#EE4E3D" transform="translate(273,283)"/>
<path d="M0 0 C0.33 0 0.66 0 1 0 C1.55353075 10.55808656 1.55353075 10.55808656 -2 15 C-3.31534494 11.34142468 -2.65468309 8.91973519 -1.5625 5.25 C-1.27503906 4.26515625 -0.98757812 3.2803125 -0.69140625 2.265625 C-0.46324219 1.51796875 -0.23507813 0.7703125 0 0 Z " fill="#E97060" transform="translate(139,239)"/>
<path d="M0 0 C0.91222891 3.07877257 1.32903218 5.79193623 1 9 C-0.375 10.8125 -0.375 10.8125 -2 12 C-2.66 12 -3.32 12 -4 12 C-3.52309796 10.37433394 -3.04340334 8.74948689 -2.5625 7.125 C-2.29566406 6.22007812 -2.02882812 5.31515625 -1.75390625 4.3828125 C-1 2 -1 2 0 0 Z " fill="#E75B56" transform="translate(154,197)"/>
<path d="M0 0 C0.99 0 1.98 0 3 0 C2.67 1.32 2.34 2.64 2 4 C2.66 4 3.32 4 4 4 C4.99 6.97 5.98 9.94 7 13 C3.72509912 9.72509912 2.11675014 7.08751751 0 3 C0 2.01 0 1.02 0 0 Z " fill="#EC8980" transform="translate(137,336)"/>
<path d="M0 0 C0.66 0 1.32 0 2 0 C1.55005243 1.79379098 1.08975857 3.58498928 0.625 5.375 C0.36976563 6.37273437 0.11453125 7.37046875 -0.1484375 8.3984375 C-1 11 -1 11 -3 13 C-3 9.37 -3 5.74 -3 2 C-2.01 2.33 -1.02 2.66 0 3 C0 2.01 0 1.02 0 0 Z " fill="#EC5F57" transform="translate(199,162)"/>
<path d="M0 0 C1.25 1.5625 1.25 1.5625 2 4 C0.93237266 6.57001015 -0.46544943 8.6530403 -2 11 C-4 8 -4 8 -4 6 C-3.34 6 -2.68 6 -2 6 C-2 5.34 -2 4.68 -2 4 C-1.34 4 -0.68 4 0 4 C0 2.68 0 1.36 0 0 Z " fill="#EB5448" transform="translate(244,67)"/>
<path d="M0 0 C0.99 0 1.98 0 3 0 C1.6302836 3.99500618 -0.25722422 6.80009492 -3 10 C-3.66 8.68 -4.32 7.36 -5 6 C-3.68 6 -2.36 6 -1 6 C-1.020625 5.195625 -1.04125 4.39125 -1.0625 3.5625 C-1 1 -1 1 0 0 Z " fill="#EA655A" transform="translate(255,49)"/>
<path d="M0 0 C0.66 0 1.32 0 2 0 C2 0.66 2 1.32 2 2 C3.65 2 5.3 2 7 2 C7 3.98 7 5.96 7 8 C1.125 3.375 1.125 3.375 0 0 Z " fill="#EE716C" transform="translate(144,349)"/>
<path d="M0 0 C0.66 0.33 1.32 0.66 2 1 C1.67 2.65 1.34 4.3 1 6 C-1.66666667 6 -4.33333333 6 -7 6 C-4.69 4.02 -2.38 2.04 0 0 Z " fill="#EA5852" transform="translate(246,310)"/>
<path d="M0 0 C2.97 0.33 5.94 0.66 9 1 C9.33 1.99 9.66 2.98 10 4 C7.25 4.25 7.25 4.25 4 4 C1.625 2 1.625 2 0 0 Z " fill="#ED6C5B" transform="translate(155,360)"/>
<path d="M0 0 C0.99 0.495 0.99 0.495 2 1 C3.11421833 4.64653273 2.94296589 7.33291043 2 11 C1.34 10.67 0.68 10.34 0 10 C0 6.7 0 3.4 0 0 Z " fill="#EE1F14" transform="translate(173,231)"/>
<path d="M0 0 C0.66 0 1.32 0 2 0 C2.6875 1.625 2.6875 1.625 3 4 C1.5625 7.25 1.5625 7.25 0 10 C-0.66 8.68 -1.32 7.36 -2 6 C-1.34 5.34 -0.68 4.68 0 4 C-0.66 3.67 -1.32 3.34 -2 3 C-1.34 3 -0.68 3 0 3 C0 2.01 0 1.02 0 0 Z " fill="#EB4942" transform="translate(238,76)"/>
<path d="M0 0 C2 3 2 3 2 5 C1.401875 5.103125 0.80375 5.20625 0.1875 5.3125 C-2.28243264 6.08876455 -3.32251235 7.07088921 -5 9 C-5.33 8.34 -5.66 7.68 -6 7 C-5.34 7 -4.68 7 -4 7 C-3.71125 6.21625 -3.4225 5.4325 -3.125 4.625 C-2 2 -2 2 0 0 Z " fill="#E86863" transform="translate(283,270)"/>
<path d="M0 0 C0.99 0.33 1.98 0.66 3 1 C1.25 6.75 1.25 6.75 -1 9 C-1.66 7.02 -2.32 5.04 -3 3 C-2.34 3 -1.68 3 -1 3 C-0.67 2.01 -0.34 1.02 0 0 Z " fill="#EE675E" transform="translate(293,269)"/>
<path d="M0 0 C0.66 0 1.32 0 2 0 C2.93423645 3.01031744 3.04449911 3.86650268 2 7 C0.68 7 -0.64 7 -2 7 C-1.125 2.25 -1.125 2.25 0 0 Z " fill="#EF1E09" transform="translate(278,7)"/>
<path d="M0 0 C-1.65 1.65 -3.3 3.3 -5 5 C-5.66 3.35 -6.32 1.7 -7 0 C-4.3333581 -1.33332095 -2.83319697 -0.67102033 0 0 Z " fill="#EE3D20" transform="translate(223,329)"/>
<path d="M0 0 C0.5534764 2.07553648 1 3.84365964 1 6 C0.34 6 -0.32 6 -1 6 C-1.33 6.66 -1.66 7.32 -2 8 C-2.66 7.67 -3.32 7.34 -4 7 C-2.92598892 4.08482708 -2.22189824 2.22189824 0 0 Z " fill="#EB5F5D" transform="translate(221,80)"/>
<path d="M0 0 C1.65 0 3.3 0 5 0 C4.67 1.32 4.34 2.64 4 4 C2.02 4.33 0.04 4.66 -2 5 C-1.34 4.67 -0.68 4.34 0 4 C0 2.68 0 1.36 0 0 Z " fill="#EE5144" transform="translate(204,364)"/>
<path d="M0 0 C0.66 0.66 1.32 1.32 2 2 C1.625 5.625 1.625 5.625 1 9 C0.01 9 -0.98 9 -2 9 C-1.51421457 5.87709365 -1.0013988 3.00419641 0 0 Z " fill="#EB565A" transform="translate(145,220)"/>
<path d="M0 0 C0.82810826 3.31243305 1.09278428 5.65976579 1 9 C-0.32 9.33 -1.64 9.66 -3 10 C-2.01 6.7 -1.02 3.4 0 0 Z " fill="#ED6A5C" transform="translate(149,209)"/>
<path d="M0 0 C1.0625 1.8125 1.0625 1.8125 2 4 C1.67 4.99 1.34 5.98 1 7 C-0.32 7 -1.64 7 -3 7 C-1.125 1.125 -1.125 1.125 0 0 Z " fill="#E95F4E" transform="translate(189,129)"/>
<path d="M0 0 C0.66 1.32 1.32 2.64 2 4 C1.01 3.67 0.02 3.34 -1 3 C-1.33 4.65 -1.66 6.3 -2 8 C-2.99 8 -3.98 8 -5 8 C-3.8141763 4.62496331 -2.72426311 2.35277269 0 0 Z " fill="#EB6758" transform="translate(232,65)"/>
<path d="M0 0 C-2.97 2.475 -2.97 2.475 -6 5 C-6.33 3.35 -6.66 1.7 -7 0 C-3.98968256 -0.93423645 -3.13349732 -1.04449911 0 0 Z " fill="#EC5959" transform="translate(243,347)"/>
<path d="M0 0 C0.66 0 1.32 0 2 0 C0.515 5.445 0.515 5.445 -1 11 C-1.33 11 -1.66 11 -2 11 C-2.28571429 3.57142857 -2.28571429 3.57142857 0 0 Z " fill="#ED766E" transform="translate(193,178)"/>
<path d="M0 0 C-0.33 1.32 -0.66 2.64 -1 4 C-3.31 3.67 -5.62 3.34 -8 3 C-5.48696401 0.48696401 -3.51117809 0 0 0 Z " fill="#595B87" transform="translate(24,85)"/>
<path d="M0 0 C0.99 0.33 1.98 0.66 3 1 C2 4 2 4 -1.0625 5.6875 C-2.031875 6.120625 -3.00125 6.55375 -4 7 C-2.79618552 4.50638429 -1.54571278 2.31856917 0 0 Z " fill="#EC655E" transform="translate(290,260)"/>
<path d="M0 0 C0.88492145 2.47778006 1.11637742 3.66056586 0.25 6.1875 C-1 8 -1 8 -4 9 C-2.94124926 5.59687262 -1.99097846 2.98646769 0 0 Z " fill="#E8605A" transform="translate(181,143)"/>
<path d="M0 0 C0.5534764 2.07553648 1 3.84365964 1 6 C-0.65 6.66 -2.3 7.32 -4 8 C-2.87548273 5.0280615 -1.77706209 2.66559313 0 0 Z " fill="#EC6C65" transform="translate(194,121)"/>
<path d="M0 0 C0.66 0 1.32 0 2 0 C2 1.98 2 3.96 2 6 C1.01 6 0.02 6 -1 6 C-1.042721 4.33388095 -1.04063832 2.66617115 -1 1 C-0.67 0.67 -0.34 0.34 0 0 Z " fill="#F0290D" transform="translate(270,21)"/>
</svg>
